<svg width="39" height="39" viewBox="0 0 39 39" fill="none" xmlns="http://www.w3.org/2000/svg">
<circle cx="19.5" cy="19.5" r="19.5" fill="#EFEFFD"/>
<path fill-rule="evenodd" clip-rule="evenodd" d="M29.4546 20.2273C29.4546 14.5789 24.8757 10 19.2273 10C13.5789 10 9 14.5789 9 20.2273C9 21.862 9.38408 23.4092 10.0676 24.7814C10.1696 24.9862 10.1912 25.1953 10.1441 25.3712L9.57749 27.489C9.18958 28.9387 10.5159 30.265 11.9656 29.8771L14.0834 29.3105C14.2593 29.2634 14.4684 29.2851 14.6732 29.387C16.0454 30.0705 17.5925 30.4546 19.2273 30.4546C24.8757 30.4546 29.4546 25.8757 29.4546 20.2273ZM19.2273 11.4271C24.0875 11.4271 28.0275 15.3671 28.0275 20.2273C28.0275 25.0875 24.0875 29.0275 19.2273 29.0275C17.8182 29.0275 16.4885 28.6969 15.3094 28.1096C14.8362 27.874 14.2704 27.7832 13.7146 27.9319L11.5968 28.4986C11.2078 28.6026 10.852 28.2467 10.956 27.8578L11.5227 25.74C11.6714 25.1843 11.5806 24.6184 11.345 24.1452C10.7577 22.9661 10.4271 21.6364 10.4271 20.2273C10.4271 15.3671 14.3671 11.4271 19.2273 11.4271Z" fill="black"/>
</svg>
