<svg width="16" height="17" viewBox="0 0 16 17" fill="none" xmlns="http://www.w3.org/2000/svg">
<g clip-path="url(#clip0_290_1608)">
<path fill-rule="evenodd" clip-rule="evenodd" d="M7.87227 13.1357C7.30137 13.1357 6.75002 13.0692 6.22018 12.9563L3.919 14.3396L3.9498 12.0721C2.18578 11.0115 1.02932 9.2577 1.02932 7.27032C1.02932 4.03116 4.09301 1.40493 7.87227 1.40493C11.6515 1.40493 14.7152 4.03116 14.7152 7.27032C14.7152 10.51 11.6515 13.1357 7.87227 13.1357ZM7.87227 0.427368C3.55339 0.427368 0.0517578 3.49154 0.0517578 7.27032C0.0517578 9.43024 1.19795 11.3536 2.98445 12.6073V16.0684L6.41032 13.9896C6.88444 14.0678 7.37225 14.1133 7.87227 14.1133C12.1911 14.1133 15.6928 11.0496 15.6928 7.27032C15.6928 3.49154 12.1911 0.427368 7.87227 0.427368ZM11.2937 5.80397H4.4508C4.18099 5.80397 3.96201 6.02294 3.96201 6.29275C3.96201 6.56305 4.18099 6.78153 4.4508 6.78153H11.2937C11.5636 6.78153 11.7825 6.56305 11.7825 6.29275C11.7825 6.02294 11.5636 5.80397 11.2937 5.80397ZM10.3162 8.73666H5.42836C5.15855 8.73666 4.93958 8.95515 4.93958 9.22544C4.93958 9.49574 5.15855 9.71423 5.42836 9.71423H10.3162C10.586 9.71423 10.805 9.49574 10.805 9.22544C10.805 8.95515 10.586 8.73666 10.3162 8.73666Z" fill="black"/>
</g>
<defs>
<clipPath id="clip0_290_1608">
<rect width="15.641" height="15.641" fill="white" transform="translate(0.0517578 0.427368)"/>
</clipPath>
</defs>
</svg>
