<svg width="41" height="40" viewBox="0 0 41 40" fill="none" xmlns="http://www.w3.org/2000/svg">
<path d="M25.8099 25.5436C27.1782 25.5436 28.2874 26.6528 28.2874 28.0211V30.8553L28.2762 31.0089C27.8363 34.0189 25.1326 35.4663 20.5956 35.4663C16.075 35.4663 13.3282 34.0355 12.7352 31.06L12.7147 30.8525V28.0211C12.7147 26.6528 13.8239 25.5436 15.1922 25.5436H25.8099ZM26.5092 17.0493L35.012 17.0495C36.3802 17.0495 37.4894 18.1587 37.4894 19.5269V22.3611L37.4783 22.5147C37.0383 25.5247 34.3346 26.9721 29.7977 26.9721L29.5595 26.9699C29.1227 25.4085 27.7368 24.2435 26.0631 24.136L25.8099 24.1279L24.5043 24.129C25.9484 22.9611 26.8717 21.1749 26.8717 19.173C26.8717 18.4284 26.7439 17.7136 26.5092 17.0493ZM5.99017 17.0495L14.493 17.0493C14.2582 17.7136 14.1304 18.4284 14.1304 19.173C14.1304 21.0571 14.9483 22.7502 16.2485 23.9165L16.4978 24.129L15.1922 24.1279C13.4053 24.1279 11.8996 25.3318 11.4418 26.9727L11.3936 26.9721C6.87301 26.9721 4.12612 25.5413 3.53317 22.5658L3.5127 22.3583V19.5269C3.5127 18.1587 4.6219 17.0495 5.99017 17.0495ZM20.5011 14.2181C23.2376 14.2181 25.456 16.4365 25.456 19.173C25.456 21.9095 23.2376 24.1279 20.5011 24.1279C17.7645 24.1279 15.5461 21.9095 15.5461 19.173C15.5461 16.4365 17.7645 14.2181 20.5011 14.2181ZM29.7031 5.72388C32.4396 5.72388 34.658 7.94228 34.658 10.6788C34.658 13.4154 32.4396 15.6338 29.7031 15.6338C26.9666 15.6338 24.7482 13.4154 24.7482 10.6788C24.7482 7.94228 26.9666 5.72388 29.7031 5.72388ZM11.299 5.72388C14.0356 5.72388 16.254 7.94228 16.254 10.6788C16.254 13.4154 14.0356 15.6338 11.299 15.6338C8.56249 15.6338 6.34409 13.4154 6.34409 10.6788C6.34409 7.94228 8.56249 5.72388 11.299 5.72388Z" fill="#FF7B53"/>
</svg>
