<svg width="41" height="41" viewBox="0 0 41 41" fill="none" xmlns="http://www.w3.org/2000/svg">
<path d="M25.8099 26.1213C27.1782 26.1213 28.2874 27.2305 28.2874 28.5987V31.4329L28.2762 31.5865C27.8363 34.5966 25.1326 36.044 20.5956 36.044C16.075 36.044 13.3282 34.6131 12.7352 31.6377L12.7147 31.4301V28.5987C12.7147 27.2305 13.8239 26.1213 15.1922 26.1213H25.8099ZM26.5092 17.627L35.012 17.6271C36.3802 17.6271 37.4894 18.7363 37.4894 20.1046V22.9388L37.4783 23.0923C37.0383 26.1024 34.3346 27.5498 29.7977 27.5498L29.5595 27.5475C29.1227 25.9861 27.7368 24.8211 26.0631 24.7137L25.8099 24.7056L24.5043 24.7066C25.9484 23.5387 26.8717 21.7525 26.8717 19.7506C26.8717 19.006 26.7439 18.2912 26.5092 17.627ZM5.99017 17.6271L14.493 17.627C14.2582 18.2912 14.1304 19.006 14.1304 19.7506C14.1304 21.6347 14.9483 23.3278 16.2485 24.4942L16.4978 24.7066L15.1922 24.7056C13.4053 24.7056 11.8996 25.9094 11.4418 27.5503L11.3936 27.5498C6.87301 27.5498 4.12612 26.1189 3.53317 23.1435L3.5127 22.936V20.1046C3.5127 18.7363 4.6219 17.6271 5.99017 17.6271ZM20.5011 14.7957C23.2376 14.7957 25.456 17.0141 25.456 19.7506C25.456 22.4872 23.2376 24.7056 20.5011 24.7056C17.7645 24.7056 15.5461 22.4872 15.5461 19.7506C15.5461 17.0141 17.7645 14.7957 20.5011 14.7957ZM29.7031 6.30151C32.4396 6.30151 34.658 8.51992 34.658 11.2565C34.658 13.993 32.4396 16.2114 29.7031 16.2114C26.9666 16.2114 24.7482 13.993 24.7482 11.2565C24.7482 8.51992 26.9666 6.30151 29.7031 6.30151ZM11.299 6.30151C14.0356 6.30151 16.254 8.51992 16.254 11.2565C16.254 13.993 14.0356 16.2114 11.299 16.2114C8.56249 16.2114 6.34409 13.993 6.34409 11.2565C6.34409 8.51992 8.56249 6.30151 11.299 6.30151Z" fill="#EFEFFD"/>
</svg>
