<svg width="41" height="40" viewBox="0 0 41 40" fill="none" xmlns="http://www.w3.org/2000/svg">
<path d="M32.0625 14.8647V28.0779C32.0625 31.1923 32.0625 32.7494 31.095 33.717C30.1274 34.6845 28.5703 34.6845 25.4559 34.6845H23.8043H17.1977H15.546C12.4317 34.6845 10.8745 34.6845 9.90697 33.717C8.93945 32.7494 8.93945 31.1923 8.93945 28.0779V14.8647" stroke="white" stroke-width="3.53924" stroke-linejoin="round"/>
<path d="M5.63672 18.1681L13.0691 11.5615L18.307 6.90566C19.5585 5.79316 21.4446 5.79316 22.6961 6.90566L27.934 11.5615L35.3664 18.1681" stroke="white" stroke-width="3.53924" stroke-linecap="round" stroke-linejoin="round"/>
<path d="M17.1973 34.6845V28.078C17.1973 26.2535 18.6762 24.7747 20.5006 24.7747C22.325 24.7747 23.8039 26.2535 23.8039 28.078V34.6845" stroke="white" stroke-width="3.53924" stroke-linecap="round" stroke-linejoin="round"/>
</svg>
