<svg width="16" height="15" viewBox="0 0 16 15" fill="none" xmlns="http://www.w3.org/2000/svg">
<path d="M1.11703 14.6782H12.6872C13.1797 14.6813 13.6577 14.5121 14.0385 14.2C14.4194 13.8878 14.6791 13.4522 14.7727 12.9688L15.6799 8.10267C15.7353 7.80489 15.7244 7.49854 15.6478 7.20547C15.5713 6.9124 15.431 6.63983 15.2371 6.40719C15.0364 6.16655 14.7852 5.97312 14.5013 5.84071C14.2173 5.70829 13.9077 5.64015 13.5944 5.64112H10.2778V2.86049C10.2778 1.42778 8.80894 0.775024 7.44435 0.775024C7.25998 0.775024 7.08317 0.848264 6.9528 0.978631C6.82243 1.109 6.74919 1.28581 6.74919 1.47018C6.74919 2.79585 6.51284 4.18824 6.2459 4.44823L4.30989 6.33628H1.11703C0.932665 6.33628 0.755849 6.40952 0.625482 6.53989C0.495114 6.67025 0.421875 6.84707 0.421875 7.03144V13.983C0.421875 14.1674 0.495114 14.3442 0.625482 14.4746C0.755849 14.6049 0.932665 14.6782 1.11703 14.6782ZM5.28797 7.3241L7.21634 5.44717C7.86283 4.81667 8.05887 3.28385 8.12004 2.26057C8.49682 2.35025 8.89097 2.52473 8.89097 2.86397V6.33975C8.89097 6.52412 8.96421 6.70094 9.09458 6.8313C9.22494 6.96167 9.40176 7.03491 9.58613 7.03491H13.5979C13.7069 7.03414 13.8148 7.05741 13.9138 7.10307C14.0128 7.14872 14.1005 7.21565 14.1707 7.29907C14.235 7.37498 14.2815 7.46433 14.3068 7.56057C14.332 7.65681 14.3354 7.75748 14.3167 7.8552L13.413 12.7213C13.3772 12.8856 13.285 13.0322 13.1524 13.1357C13.0199 13.2392 12.8553 13.293 12.6872 13.2878H5.28797V7.3241ZM1.81219 7.72659H3.89766V13.2878H1.81219V7.72659Z" fill="black"/>
</svg>
