<svg width="39" height="39" viewBox="0 0 39 39" fill="none" xmlns="http://www.w3.org/2000/svg">
<circle cx="19.5" cy="19.5" r="19.5" fill="#EFEFFD"/>
<path d="M19.0196 9.90991C15.7096 9.90991 13.0196 12.5999 13.0196 15.9099V18.7999C13.0196 19.4099 12.7596 20.3399 12.4496 20.8599L11.2996 22.7699C10.5896 23.9499 11.0796 25.2599 12.3796 25.6999C16.6896 27.1399 21.3396 27.1399 25.6496 25.6999C26.8596 25.2999 27.3896 23.8699 26.7296 22.7699L25.5796 20.8599C25.2796 20.3399 25.0196 19.4099 25.0196 18.7999V15.9099C25.0196 12.6099 22.3196 9.90991 19.0196 9.90991Z" stroke="#181820" stroke-width="1.5" stroke-miterlimit="10" stroke-linecap="round"/>
<path d="M20.8699 10.1999C20.5599 10.1099 20.2399 10.0399 19.9099 9.99994C18.9499 9.87994 18.0299 9.94994 17.1699 10.1999C17.4599 9.45994 18.1799 8.93994 19.0199 8.93994C19.8599 8.93994 20.5799 9.45994 20.8699 10.1999Z" stroke="#181820" stroke-width="1.5" stroke-miterlimit="10" stroke-linecap="round" stroke-linejoin="round"/>
<path d="M22.0205 26.0601C22.0205 27.7101 20.6705 29.0601 19.0205 29.0601C18.2005 29.0601 17.4405 28.7201 16.9005 28.1801C16.3605 27.6401 16.0205 26.8801 16.0205 26.0601" stroke="#181820" stroke-width="1.5" stroke-miterlimit="10"/>
</svg>
