<svg width="37" height="35" viewBox="0 0 37 35" fill="none" xmlns="http://www.w3.org/2000/svg">
<g clip-path="url(#clip0_276_1632)">
<mask id="mask0_276_1632" style="mask-type:luminance" maskUnits="userSpaceOnUse" x="0" y="0" width="37" height="35">
<path d="M36.0907 0.639261H0.910156V34.0608H36.0907V0.639261Z" fill="white"/>
</mask>
<g mask="url(#mask0_276_1632)">
<path d="M31.0934 9.9627H5.89964C4.87911 9.9627 3.90041 10.3478 3.1788 11.0334C2.45718 11.7189 2.05176 12.6487 2.05176 13.6182V27.3001C2.05176 28.2696 2.45718 29.1994 3.1788 29.885C3.90041 30.5705 4.87911 30.9556 5.89964 30.9556H31.0934C32.1139 30.9556 33.0926 30.5705 33.8142 29.885C34.5358 29.1994 34.9412 28.2696 34.9412 27.3001V13.6182C34.9412 12.6487 34.5358 11.7189 33.8142 11.0334C33.0926 10.3478 32.1139 9.9627 31.0934 9.9627ZM5.89964 12.0515H31.0934C31.5307 12.0515 31.9501 12.2166 32.2594 12.5104C32.5687 12.8042 32.7424 13.2027 32.7424 13.6182V15.9493L23.3723 17.8575C23.3444 17.6047 23.2195 17.3706 23.0213 17.1999C22.8232 17.0292 22.5657 16.9338 22.2982 16.9321H14.6948C14.4273 16.9338 14.1698 17.0292 13.9717 17.1999C13.7735 17.3706 13.6485 17.6047 13.6207 17.8575L4.25054 15.9493V13.6182C4.25054 13.2027 4.42431 12.8042 4.73358 12.5104C5.04284 12.2166 5.46227 12.0515 5.89964 12.0515ZM21.1988 19.021V20.8163H15.7942V19.021H21.1988ZM31.0934 28.8689H5.89964C5.49585 28.867 5.10685 28.7244 4.80635 28.4682C4.50584 28.2119 4.31472 27.8599 4.26923 27.4787C4.67595 27.7114 5.14123 27.8355 5.616 27.838H28.8407C28.9865 27.838 29.1263 27.783 29.2294 27.6851C29.3325 27.5871 29.3904 27.4543 29.3904 27.3158C29.3904 27.1773 29.3325 27.0445 29.2294 26.9465C29.1263 26.8486 28.9865 26.7936 28.8407 26.7936H5.616C5.3371 26.7926 5.06351 26.7209 4.82349 26.586C4.58347 26.451 4.38569 26.2577 4.25054 26.0259V18.0883L13.5954 19.9913V21.8629C13.5954 22.1399 13.7112 22.4055 13.9174 22.6014C14.1236 22.7972 14.4032 22.9073 14.6948 22.9073H22.2982C22.5898 22.9073 22.8694 22.7972 23.0756 22.6014C23.2818 22.4055 23.3976 22.1399 23.3976 21.8629V19.9913L32.7424 18.0883V27.3043C32.7419 27.7194 32.5678 28.1174 32.2586 28.4107C31.9494 28.7041 31.5303 28.8689 31.0934 28.8689Z" fill="#FF7B53"/>
<path d="M11.8572 8.82012C12.1488 8.82012 12.4284 8.71008 12.6346 8.51422C12.8408 8.31835 12.9566 8.05269 12.9566 7.7757V6.10462C12.9572 5.75448 13.1039 5.41886 13.3646 5.17137C13.6254 4.92388 13.9787 4.78474 14.3473 4.78447H22.6522C23.0207 4.78474 23.3741 4.92388 23.6348 5.17137C23.8955 5.41886 24.0423 5.75448 24.0429 6.10462V7.7757C24.0429 8.05269 24.1587 8.31835 24.3649 8.51422C24.5711 8.71008 24.8507 8.82012 25.1423 8.82012C25.4338 8.82012 25.7135 8.71008 25.9197 8.51422C26.1258 8.31835 26.2417 8.05269 26.2417 7.7757V6.10462C26.2405 5.20066 25.8619 4.33404 25.189 3.69494C24.516 3.05584 23.6037 2.69645 22.6522 2.69562H14.3473C13.3958 2.69645 12.4834 3.05584 11.8105 3.69494C11.1376 4.33404 10.759 5.20066 10.7578 6.10462V7.7757C10.7578 8.05269 10.8736 8.31835 11.0798 8.51422C11.286 8.71008 11.5656 8.82012 11.8572 8.82012Z" fill="#FF7B53"/>
</g>
</g>
<defs>
<clipPath id="clip0_276_1632">
<rect width="35.1806" height="33.4216" fill="white" transform="translate(0.910156 0.639526)"/>
</clipPath>
</defs>
</svg>
