<svg width="18" height="18" viewBox="0 0 18 18" fill="none" xmlns="http://www.w3.org/2000/svg">
<g clip-path="url(#clip0_371_352)">
<path fill-rule="evenodd" clip-rule="evenodd" d="M12.7794 11.7184C13.7035 10.5631 14.2561 9.09764 14.2561 7.50314C14.2561 3.77351 11.2327 0.750061 7.50307 0.750061C3.77345 0.750061 0.75 3.77351 0.75 7.50314C0.75 11.2327 3.77345 14.2562 7.50307 14.2562C9.09757 14.2562 10.563 13.7036 11.7183 12.7795L15.9691 17.0303C16.2621 17.3233 16.7372 17.3233 17.0302 17.0303C17.3233 16.7373 17.3233 16.2622 17.0302 15.9691L12.7794 11.7184ZM7.50307 12.763C4.5981 12.763 2.24315 10.4081 2.24315 7.50314C2.24315 4.59816 4.5981 2.24321 7.50307 2.24321C10.408 2.24321 12.763 4.59816 12.763 7.50314C12.763 10.4081 10.408 12.763 7.50307 12.763Z" fill="#5A5A5A"/>
</g>
<defs>
<clipPath id="clip0_371_352">
<rect width="18" height="18" fill="white"/>
</clipPath>
</defs>
</svg>
