<svg width="37" height="35" viewBox="0 0 37 35" fill="none" xmlns="http://www.w3.org/2000/svg">
<g clip-path="url(#clip0_371_22)">
<mask id="mask0_371_22" style="mask-type:luminance" maskUnits="userSpaceOnUse" x="0" y="0" width="37" height="35">
<path d="M36.0907 0.639404H0.910156V34.061H36.0907V0.639404Z" fill="white"/>
</mask>
<g mask="url(#mask0_371_22)">
<path d="M31.0934 9.96289H5.89964C4.87911 9.96289 3.90041 10.348 3.1788 11.0336C2.45718 11.7191 2.05176 12.6489 2.05176 13.6184V27.3003C2.05176 28.2698 2.45718 29.1996 3.1788 29.8851C3.90041 30.5707 4.87911 30.9558 5.89964 30.9558H31.0934C32.1139 30.9558 33.0926 30.5707 33.8142 29.8851C34.5358 29.1996 34.9412 28.2698 34.9412 27.3003V13.6184C34.9412 12.6489 34.5358 11.7191 33.8142 11.0336C33.0926 10.348 32.1139 9.96289 31.0934 9.96289ZM5.89964 12.0517H31.0934C31.5307 12.0517 31.9501 12.2168 32.2594 12.5106C32.5687 12.8044 32.7424 13.2029 32.7424 13.6184V15.9495L23.3723 17.8577C23.3444 17.6049 23.2195 17.3708 23.0213 17.2001C22.8232 17.0294 22.5657 16.934 22.2982 16.9323H14.6948C14.4273 16.934 14.1698 17.0294 13.9717 17.2001C13.7735 17.3708 13.6485 17.6049 13.6207 17.8577L4.25054 15.9495V13.6184C4.25054 13.2029 4.42431 12.8044 4.73358 12.5106C5.04284 12.2168 5.46227 12.0517 5.89964 12.0517ZM21.1988 19.0212V20.8165H15.7942V19.0212H21.1988ZM31.0934 28.8691H5.89964C5.49585 28.8672 5.10685 28.7246 4.80635 28.4683C4.50584 28.2121 4.31472 27.8601 4.26923 27.4789C4.67595 27.7116 5.14123 27.8357 5.616 27.8382H28.8407C28.9865 27.8382 29.1263 27.7832 29.2294 27.6853C29.3325 27.5873 29.3904 27.4545 29.3904 27.316C29.3904 27.1775 29.3325 27.0447 29.2294 26.9467C29.1263 26.8488 28.9865 26.7938 28.8407 26.7938H5.616C5.3371 26.7928 5.06351 26.7211 4.82349 26.5862C4.58347 26.4512 4.38569 26.2579 4.25054 26.0261V18.0885L13.5954 19.9914V21.8631C13.5954 22.1401 13.7112 22.4057 13.9174 22.6016C14.1236 22.7974 14.4032 22.9075 14.6948 22.9075H22.2982C22.5898 22.9075 22.8694 22.7974 23.0756 22.6016C23.2818 22.4057 23.3976 22.1401 23.3976 21.8631V19.9914L32.7424 18.0885V27.3045C32.7419 27.7196 32.5678 28.1176 32.2586 28.4109C31.9494 28.7043 31.5303 28.8691 31.0934 28.8691Z" fill="#EFEFFD"/>
<path d="M11.8572 8.8203C12.1488 8.8203 12.4284 8.71026 12.6346 8.5144C12.8408 8.31853 12.9566 8.05288 12.9566 7.77588V6.1048C12.9572 5.75466 13.1039 5.41904 13.3646 5.17155C13.6254 4.92406 13.9787 4.78492 14.3473 4.78465H22.6522C23.0207 4.78492 23.3741 4.92406 23.6348 5.17155C23.8955 5.41904 24.0423 5.75466 24.0429 6.1048V7.77588C24.0429 8.05288 24.1587 8.31853 24.3649 8.5144C24.5711 8.71026 24.8507 8.8203 25.1423 8.8203C25.4338 8.8203 25.7135 8.71026 25.9197 8.5144C26.1258 8.31853 26.2417 8.05288 26.2417 7.77588V6.1048C26.2405 5.20084 25.8619 4.33423 25.189 3.69512C24.516 3.05602 23.6037 2.69663 22.6522 2.6958H14.3473C13.3958 2.69663 12.4834 3.05602 11.8105 3.69512C11.1376 4.33423 10.759 5.20084 10.7578 6.1048V7.77588C10.7578 8.05288 10.8736 8.31853 11.0798 8.5144C11.286 8.71026 11.5656 8.8203 11.8572 8.8203Z" fill="#EFEFFD"/>
</g>
</g>
<defs>
<clipPath id="clip0_371_22">
<rect width="35.1806" height="33.4216" fill="white" transform="translate(0.910156 0.639648)"/>
</clipPath>
</defs>
</svg>
